<mxfile host="65bd71144e">
    <diagram id="8UgtvClbm_XFYpJ5bJ2f" name="Page-1">
        <mxGraphModel dx="995" dy="1004" grid="1" gridSize="10" guides="1" tooltips="1" connect="1" arrows="1" fold="1" page="1" pageScale="1" pageWidth="850" pageHeight="1100" math="0" shadow="0">
            <root>
                <mxCell id="0"/>
                <mxCell id="1" parent="0"/>
                <mxCell id="2" value="" style="group;fontColor=#000000;strokeColor=#000000;" parent="1" vertex="1" connectable="0">
                    <mxGeometry x="70" y="70" width="1290" height="400" as="geometry"/>
                </mxCell>
                <mxCell id="3" value="" style="rounded=1;whiteSpace=wrap;html=1;absoluteArcSize=1;arcSize=14;strokeWidth=2;fillColor=#f8cecc;fontColor=#000000;strokeColor=#B85450;" parent="2" vertex="1">
                    <mxGeometry width="1290" height="400" as="geometry"/>
                </mxCell>
                <mxCell id="4" value="&lt;font&gt;&lt;span style=&quot;font-size: 30px;&quot;&gt;Combination Module&lt;/span&gt;&lt;/font&gt;" style="text;html=1;align=center;verticalAlign=middle;whiteSpace=wrap;rounded=0;fontColor=#000000;" parent="2" vertex="1">
                    <mxGeometry width="1290" height="39" as="geometry"/>
                </mxCell>
                <mxCell id="5" value="" style="html=1;verticalLabelPosition=bottom;align=center;labelBackgroundColor=#ffffff;verticalAlign=top;strokeWidth=2;strokeColor=#000000;shadow=0;dashed=0;shape=mxgraph.ios7.icons.stopwatch;fillColor=none;fontColor=#000000;" parent="2" vertex="1">
                    <mxGeometry x="10" y="74.78999999999996" width="27" height="28.2" as="geometry"/>
                </mxCell>
                <mxCell id="6" value="" style="endArrow=classic;html=1;exitX=0;exitY=0.5;exitDx=0;exitDy=0;entryX=1;entryY=0.288;entryDx=0;entryDy=0;strokeWidth=6;endFill=1;entryPerimeter=0;fontColor=#000000;strokeColor=#000000;" parent="2" target="3" edge="1">
                    <mxGeometry width="50" height="50" relative="1" as="geometry">
                        <mxPoint y="117.99000000000001" as="sourcePoint"/>
                        <mxPoint x="310" y="117.99000000000001" as="targetPoint"/>
                    </mxGeometry>
                </mxCell>
                <mxCell id="7" value="" style="rounded=1;whiteSpace=wrap;html=1;absoluteArcSize=1;arcSize=14;strokeWidth=2;fillColor=#FA998E;strokeColor=#000000;fontColor=#000000;" parent="2" vertex="1">
                    <mxGeometry x="75" y="68.99000000000001" width="1055" height="301.01" as="geometry"/>
                </mxCell>
                <mxCell id="8" value="" style="endArrow=classic;html=1;strokeWidth=6;entryX=0.923;entryY=0.999;entryDx=0;entryDy=0;entryPerimeter=0;exitX=0.491;exitY=1;exitDx=0;exitDy=0;exitPerimeter=0;fontColor=#000000;strokeColor=#000000;" parent="2" source="12" target="3" edge="1">
                    <mxGeometry width="50" height="50" relative="1" as="geometry">
                        <mxPoint x="240" y="210" as="sourcePoint"/>
                        <mxPoint x="290" y="160" as="targetPoint"/>
                    </mxGeometry>
                </mxCell>
                <mxCell id="9" value="" style="edgeStyle=segmentEdgeStyle;endArrow=classic;html=1;curved=0;rounded=0;endSize=8;startSize=8;strokeWidth=6;entryX=0.5;entryY=0;entryDx=0;entryDy=0;fontColor=#000000;strokeColor=#000000;" parent="2" target="11" edge="1">
                    <mxGeometry width="50" height="50" relative="1" as="geometry">
                        <mxPoint x="50" y="118.99000000000001" as="sourcePoint"/>
                        <mxPoint x="120" y="38.99000000000001" as="targetPoint"/>
                        <Array as="points">
                            <mxPoint x="50" y="50"/>
                            <mxPoint x="1189" y="50"/>
                        </Array>
                    </mxGeometry>
                </mxCell>
                <mxCell id="10" value="" style="group;fontColor=#000000;" parent="2" vertex="1" connectable="0">
                    <mxGeometry x="1164" y="90" width="51" height="51" as="geometry"/>
                </mxCell>
                <mxCell id="11" value="" style="rhombus;whiteSpace=wrap;html=1;strokeColor=#000000;fillColor=#FFFFFF;strokeWidth=2;fontColor=#000000;" parent="10" vertex="1">
                    <mxGeometry width="51" height="51" as="geometry"/>
                </mxCell>
                <mxCell id="12" value="" style="html=1;verticalLabelPosition=bottom;align=center;labelBackgroundColor=#ffffff;verticalAlign=top;strokeWidth=2;strokeColor=#000000;shadow=0;dashed=0;shape=mxgraph.ios7.icons.clock;fillColor=none;fontColor=#000000;" parent="10" vertex="1">
                    <mxGeometry x="10.5" y="10.5" width="30" height="30" as="geometry"/>
                </mxCell>
                <mxCell id="13" value="" style="endArrow=none;html=1;strokeWidth=6;fontSize=20;exitX=0;exitY=0.5;exitDx=0;exitDy=0;entryX=1;entryY=0.5;entryDx=0;entryDy=0;fontColor=#000000;strokeColor=#000000;" parent="2" source="7" target="7" edge="1">
                    <mxGeometry width="50" height="50" relative="1" as="geometry">
                        <mxPoint x="100" y="210" as="sourcePoint"/>
                        <mxPoint x="150" y="160" as="targetPoint"/>
                    </mxGeometry>
                </mxCell>
                <mxCell id="14" value="" style="group;fontColor=#000000;" parent="2" vertex="1" connectable="0">
                    <mxGeometry x="100" y="99.49000000000001" width="310" height="240" as="geometry"/>
                </mxCell>
                <mxCell id="15" value="" style="rounded=1;whiteSpace=wrap;html=1;absoluteArcSize=1;arcSize=14;strokeWidth=2;fillColor=#f8cecc;fontColor=#000000;strokeColor=#000000;" parent="14" vertex="1">
                    <mxGeometry width="310" height="240" as="geometry"/>
                </mxCell>
                <mxCell id="16" value="&lt;font&gt;&lt;span style=&quot;font-size: 30px;&quot;&gt;Sub-Module&lt;/span&gt;&lt;/font&gt;" style="text;html=1;align=center;verticalAlign=middle;whiteSpace=wrap;rounded=0;fontColor=#000000;" parent="14" vertex="1">
                    <mxGeometry width="310" height="39" as="geometry"/>
                </mxCell>
                <mxCell id="17" value="" style="html=1;verticalLabelPosition=bottom;align=center;labelBackgroundColor=#ffffff;verticalAlign=top;strokeWidth=2;strokeColor=#000000;shadow=0;dashed=0;shape=mxgraph.ios7.icons.stopwatch;fillColor=none;fontColor=#000000;" parent="14" vertex="1">
                    <mxGeometry x="10" y="74.79000000000002" width="27" height="28.2" as="geometry"/>
                </mxCell>
                <mxCell id="18" value="" style="endArrow=classic;html=1;exitX=0;exitY=0.5;exitDx=0;exitDy=0;entryX=1;entryY=0.5;entryDx=0;entryDy=0;strokeWidth=6;endFill=1;fontColor=#000000;strokeColor=#000000;" parent="14" source="15" target="15" edge="1">
                    <mxGeometry width="50" height="50" relative="1" as="geometry">
                        <mxPoint y="117.99000000000001" as="sourcePoint"/>
                        <mxPoint x="310" y="117.99000000000001" as="targetPoint"/>
                    </mxGeometry>
                </mxCell>
                <mxCell id="19" value="" style="rounded=1;whiteSpace=wrap;html=1;absoluteArcSize=1;arcSize=14;strokeWidth=2;fillColor=#fa998e;fontColor=#000000;strokeColor=#000000;" parent="14" vertex="1">
                    <mxGeometry x="75" y="68.99000000000001" width="130" height="140" as="geometry"/>
                </mxCell>
                <mxCell id="20" value="" style="endArrow=classic;html=1;strokeWidth=6;entryX=0.822;entryY=1;entryDx=0;entryDy=0;entryPerimeter=0;exitX=0.491;exitY=1;exitDx=0;exitDy=0;exitPerimeter=0;fontColor=#000000;strokeColor=#000000;" parent="14" source="24" target="15" edge="1">
                    <mxGeometry width="50" height="50" relative="1" as="geometry">
                        <mxPoint x="240" y="210" as="sourcePoint"/>
                        <mxPoint x="290" y="160" as="targetPoint"/>
                    </mxGeometry>
                </mxCell>
                <mxCell id="21" value="" style="edgeStyle=segmentEdgeStyle;endArrow=classic;html=1;curved=0;rounded=0;endSize=8;startSize=8;strokeWidth=6;entryX=0.5;entryY=0;entryDx=0;entryDy=0;fontColor=#000000;strokeColor=#000000;" parent="14" target="23" edge="1">
                    <mxGeometry width="50" height="50" relative="1" as="geometry">
                        <mxPoint x="50" y="118.99000000000001" as="sourcePoint"/>
                        <mxPoint x="120" y="38.99000000000001" as="targetPoint"/>
                        <Array as="points">
                            <mxPoint x="50" y="48.99000000000001"/>
                            <mxPoint x="255" y="48.99000000000001"/>
                        </Array>
                    </mxGeometry>
                </mxCell>
                <mxCell id="22" value="" style="group;fontColor=#000000;" parent="14" vertex="1" connectable="0">
                    <mxGeometry x="229.5" y="94.49000000000001" width="51" height="51" as="geometry"/>
                </mxCell>
                <mxCell id="23" value="" style="rhombus;whiteSpace=wrap;html=1;strokeColor=#000000;fillColor=#FFFFFF;strokeWidth=2;fontColor=#000000;" parent="22" vertex="1">
                    <mxGeometry width="51" height="51" as="geometry"/>
                </mxCell>
                <mxCell id="24" value="" style="html=1;verticalLabelPosition=bottom;align=center;labelBackgroundColor=#ffffff;verticalAlign=top;strokeWidth=2;strokeColor=#000000;shadow=0;dashed=0;shape=mxgraph.ios7.icons.clock;fillColor=none;fontColor=#000000;" parent="22" vertex="1">
                    <mxGeometry x="10.5" y="10.5" width="30" height="30" as="geometry"/>
                </mxCell>
                <mxCell id="25" value="" style="verticalLabelPosition=bottom;html=1;verticalAlign=top;align=center;strokeColor=none;fillColor=#000000;shape=mxgraph.azure.code_file;pointerEvents=1;strokeWidth=2;fontColor=#000000;" parent="14" vertex="1">
                    <mxGeometry x="102" y="120" width="76" height="80" as="geometry"/>
                </mxCell>
                <mxCell id="26" value="&lt;font style=&quot;font-size: 20px;&quot;&gt;Run code&lt;/font&gt;" style="text;html=1;align=center;verticalAlign=middle;whiteSpace=wrap;rounded=0;fontColor=#000000;" parent="14" vertex="1">
                    <mxGeometry x="77.5" y="74.78999999999999" width="125" height="39" as="geometry"/>
                </mxCell>
                <mxCell id="27" value="" style="group;fontColor=#000000;" parent="2" vertex="1" connectable="0">
                    <mxGeometry x="450" y="100" width="310" height="240" as="geometry"/>
                </mxCell>
                <mxCell id="28" value="" style="rounded=1;whiteSpace=wrap;html=1;absoluteArcSize=1;arcSize=14;strokeWidth=2;fillColor=#f8cecc;fontColor=#000000;strokeColor=#000000;" parent="27" vertex="1">
                    <mxGeometry width="310" height="240" as="geometry"/>
                </mxCell>
                <mxCell id="29" value="&lt;font&gt;&lt;span style=&quot;font-size: 30px;&quot;&gt;Sub-Module&lt;/span&gt;&lt;/font&gt;" style="text;html=1;align=center;verticalAlign=middle;whiteSpace=wrap;rounded=0;fontColor=#000000;" parent="27" vertex="1">
                    <mxGeometry width="310" height="39" as="geometry"/>
                </mxCell>
                <mxCell id="30" value="" style="html=1;verticalLabelPosition=bottom;align=center;labelBackgroundColor=#ffffff;verticalAlign=top;strokeWidth=2;strokeColor=#000000;shadow=0;dashed=0;shape=mxgraph.ios7.icons.stopwatch;fillColor=none;fontColor=#000000;" parent="27" vertex="1">
                    <mxGeometry x="10" y="74.79000000000002" width="27" height="28.2" as="geometry"/>
                </mxCell>
                <mxCell id="31" value="" style="endArrow=classic;html=1;exitX=0;exitY=0.5;exitDx=0;exitDy=0;entryX=1;entryY=0.5;entryDx=0;entryDy=0;strokeWidth=6;endFill=1;fontColor=#000000;strokeColor=#000000;" parent="27" source="28" target="28" edge="1">
                    <mxGeometry width="50" height="50" relative="1" as="geometry">
                        <mxPoint y="117.99000000000001" as="sourcePoint"/>
                        <mxPoint x="310" y="117.99000000000001" as="targetPoint"/>
                    </mxGeometry>
                </mxCell>
                <mxCell id="32" value="" style="rounded=1;whiteSpace=wrap;html=1;absoluteArcSize=1;arcSize=14;strokeWidth=2;fillColor=#fa998e;fontColor=#000000;strokeColor=#000000;" parent="27" vertex="1">
                    <mxGeometry x="75" y="68.99000000000001" width="130" height="140" as="geometry"/>
                </mxCell>
                <mxCell id="33" value="" style="endArrow=classic;html=1;strokeWidth=6;entryX=0.822;entryY=1;entryDx=0;entryDy=0;entryPerimeter=0;exitX=0.491;exitY=1;exitDx=0;exitDy=0;exitPerimeter=0;fontColor=#000000;strokeColor=#000000;" parent="27" source="37" target="28" edge="1">
                    <mxGeometry width="50" height="50" relative="1" as="geometry">
                        <mxPoint x="240" y="210" as="sourcePoint"/>
                        <mxPoint x="290" y="160" as="targetPoint"/>
                    </mxGeometry>
                </mxCell>
                <mxCell id="34" value="" style="edgeStyle=segmentEdgeStyle;endArrow=classic;html=1;curved=0;rounded=0;endSize=8;startSize=8;strokeWidth=6;entryX=0.5;entryY=0;entryDx=0;entryDy=0;fontColor=#000000;strokeColor=#000000;" parent="27" target="36" edge="1">
                    <mxGeometry width="50" height="50" relative="1" as="geometry">
                        <mxPoint x="50" y="118.99000000000001" as="sourcePoint"/>
                        <mxPoint x="120" y="38.99000000000001" as="targetPoint"/>
                        <Array as="points">
                            <mxPoint x="50" y="48.99000000000001"/>
                            <mxPoint x="255" y="48.99000000000001"/>
                        </Array>
                    </mxGeometry>
                </mxCell>
                <mxCell id="35" value="" style="group;fontColor=#000000;" parent="27" vertex="1" connectable="0">
                    <mxGeometry x="229.5" y="94.49000000000001" width="51" height="51" as="geometry"/>
                </mxCell>
                <mxCell id="36" value="" style="rhombus;whiteSpace=wrap;html=1;strokeColor=#000000;fillColor=#FFFFFF;strokeWidth=2;fontColor=#000000;" parent="35" vertex="1">
                    <mxGeometry width="51" height="51" as="geometry"/>
                </mxCell>
                <mxCell id="37" value="" style="html=1;verticalLabelPosition=bottom;align=center;labelBackgroundColor=#ffffff;verticalAlign=top;strokeWidth=2;strokeColor=#000000;shadow=0;dashed=0;shape=mxgraph.ios7.icons.clock;fillColor=none;fontColor=#000000;" parent="35" vertex="1">
                    <mxGeometry x="10.5" y="10.5" width="30" height="30" as="geometry"/>
                </mxCell>
                <mxCell id="38" value="" style="verticalLabelPosition=bottom;html=1;verticalAlign=top;align=center;strokeColor=none;fillColor=#000000;shape=mxgraph.azure.code_file;pointerEvents=1;strokeWidth=2;fontColor=#000000;" parent="27" vertex="1">
                    <mxGeometry x="102" y="120" width="76" height="80" as="geometry"/>
                </mxCell>
                <mxCell id="39" value="&lt;font style=&quot;font-size: 20px;&quot;&gt;Run code&lt;/font&gt;" style="text;html=1;align=center;verticalAlign=middle;whiteSpace=wrap;rounded=0;fontColor=#000000;" parent="27" vertex="1">
                    <mxGeometry x="77.5" y="74.78999999999999" width="125" height="39" as="geometry"/>
                </mxCell>
                <mxCell id="40" value="" style="group;fontColor=#000000;" parent="2" vertex="1" connectable="0">
                    <mxGeometry x="790" y="100" width="310" height="240" as="geometry"/>
                </mxCell>
                <mxCell id="41" value="" style="rounded=1;whiteSpace=wrap;html=1;absoluteArcSize=1;arcSize=14;strokeWidth=2;fillColor=#f8cecc;fontColor=#000000;strokeColor=#000000;" parent="40" vertex="1">
                    <mxGeometry width="310" height="240" as="geometry"/>
                </mxCell>
                <mxCell id="42" value="&lt;font&gt;&lt;span style=&quot;font-size: 30px;&quot;&gt;Sub-Module&lt;/span&gt;&lt;/font&gt;" style="text;html=1;align=center;verticalAlign=middle;whiteSpace=wrap;rounded=0;fontColor=#000000;" parent="40" vertex="1">
                    <mxGeometry width="310" height="39" as="geometry"/>
                </mxCell>
                <mxCell id="43" value="" style="html=1;verticalLabelPosition=bottom;align=center;labelBackgroundColor=#ffffff;verticalAlign=top;strokeWidth=2;strokeColor=#000000;shadow=0;dashed=0;shape=mxgraph.ios7.icons.stopwatch;fillColor=none;fontColor=#000000;" parent="40" vertex="1">
                    <mxGeometry x="10" y="74.79000000000002" width="27" height="28.2" as="geometry"/>
                </mxCell>
                <mxCell id="44" value="" style="endArrow=classic;html=1;exitX=0;exitY=0.5;exitDx=0;exitDy=0;entryX=1;entryY=0.5;entryDx=0;entryDy=0;strokeWidth=6;endFill=1;fontColor=#000000;strokeColor=#000000;" parent="40" source="41" target="41" edge="1">
                    <mxGeometry width="50" height="50" relative="1" as="geometry">
                        <mxPoint y="117.99000000000001" as="sourcePoint"/>
                        <mxPoint x="310" y="117.99000000000001" as="targetPoint"/>
                    </mxGeometry>
                </mxCell>
                <mxCell id="45" value="" style="rounded=1;whiteSpace=wrap;html=1;absoluteArcSize=1;arcSize=14;strokeWidth=2;fillColor=#fa998e;fontColor=#000000;strokeColor=#000000;" parent="40" vertex="1">
                    <mxGeometry x="75" y="68.99000000000001" width="130" height="140" as="geometry"/>
                </mxCell>
                <mxCell id="46" value="" style="endArrow=classic;html=1;strokeWidth=6;entryX=0.822;entryY=1;entryDx=0;entryDy=0;entryPerimeter=0;exitX=0.491;exitY=1;exitDx=0;exitDy=0;exitPerimeter=0;fontColor=#000000;strokeColor=#000000;" parent="40" source="50" target="41" edge="1">
                    <mxGeometry width="50" height="50" relative="1" as="geometry">
                        <mxPoint x="240" y="210" as="sourcePoint"/>
                        <mxPoint x="290" y="160" as="targetPoint"/>
                    </mxGeometry>
                </mxCell>
                <mxCell id="47" value="" style="edgeStyle=segmentEdgeStyle;endArrow=classic;html=1;curved=0;rounded=0;endSize=8;startSize=8;strokeWidth=6;entryX=0.5;entryY=0;entryDx=0;entryDy=0;fontColor=#000000;strokeColor=#000000;" parent="40" target="49" edge="1">
                    <mxGeometry width="50" height="50" relative="1" as="geometry">
                        <mxPoint x="50" y="118.99000000000001" as="sourcePoint"/>
                        <mxPoint x="120" y="38.99000000000001" as="targetPoint"/>
                        <Array as="points">
                            <mxPoint x="50" y="48.99000000000001"/>
                            <mxPoint x="255" y="48.99000000000001"/>
                        </Array>
                    </mxGeometry>
                </mxCell>
                <mxCell id="48" value="" style="group;fontColor=#000000;" parent="40" vertex="1" connectable="0">
                    <mxGeometry x="229.5" y="94.49000000000001" width="51" height="51" as="geometry"/>
                </mxCell>
                <mxCell id="49" value="" style="rhombus;whiteSpace=wrap;html=1;strokeColor=#000000;fillColor=#FFFFFF;strokeWidth=2;fontColor=#000000;" parent="48" vertex="1">
                    <mxGeometry width="51" height="51" as="geometry"/>
                </mxCell>
                <mxCell id="50" value="" style="html=1;verticalLabelPosition=bottom;align=center;labelBackgroundColor=#ffffff;verticalAlign=top;strokeWidth=2;strokeColor=#000000;shadow=0;dashed=0;shape=mxgraph.ios7.icons.clock;fillColor=none;fontColor=#000000;" parent="48" vertex="1">
                    <mxGeometry x="10.5" y="10.5" width="30" height="30" as="geometry"/>
                </mxCell>
                <mxCell id="51" value="" style="verticalLabelPosition=bottom;html=1;verticalAlign=top;align=center;strokeColor=none;fillColor=#000000;shape=mxgraph.azure.code_file;pointerEvents=1;strokeWidth=2;fontColor=#000000;" parent="40" vertex="1">
                    <mxGeometry x="102" y="120" width="76" height="80" as="geometry"/>
                </mxCell>
                <mxCell id="52" value="&lt;font style=&quot;font-size: 20px;&quot;&gt;Run code&lt;/font&gt;" style="text;html=1;align=center;verticalAlign=middle;whiteSpace=wrap;rounded=0;fontColor=#000000;" parent="40" vertex="1">
                    <mxGeometry x="77.5" y="74.78999999999999" width="125" height="39" as="geometry"/>
                </mxCell>
            </root>
        </mxGraphModel>
    </diagram>
</mxfile>